<?xml version="1.0" encoding="UTF-8"?>
<svg width="400" height="260" viewBox="0 0 400 260" fill="none" xmlns="http://www.w3.org/2000/svg">

  <defs>
    <linearGradient id="celeste" x1="30" y1="225" x2="370" y2="60" gradientUnits="userSpaceOnUse">
      <stop stop-color="#46EBFF"/>
      <stop offset="0.5" stop-color="#428BFF"/>
      <stop offset="1" stop-color="#3CDFFF"/>
    </linearGradient>
    <linearGradient id="naranjo" x1="80" y1="190" x2="320" y2="90" gradientUnits="userSpaceOnUse">
      <stop stop-color="#FFA500"/>
      <stop offset="1" stop-color="#FF9100"/>
    </linearGradient>
    <linearGradient id="marka" x1="90" y1="40" x2="310" y2="40" gradientUnits="userSpaceOnUse">
      <stop stop-color="#3CDFFF"/>
      <stop offset="0.55" stop-color="#007AFF"/>
      <stop offset="1" stop-color="#FFA500"/>
    </linearGradient>
    <radialGradient id="cityGlow" cx="0.5" cy="0.9" r="0.75">
      <stop stop-color="#181F25" stop-opacity="0.65"/>
      <stop offset="1" stop-color="#000" stop-opacity="1"/>
    </radialGradient>
  </defs>

  <rect width="400" height="260" fill="#000"/>
  <ellipse cx="200" cy="230" rx="170" ry="36" fill="url(#cityGlow)" opacity="0.38"/>

  <text x="50%" y="48" text-anchor="middle"
    font-family="Arial, Helvetica, sans-serif"
    font-size="41" font-weight="bold"
    fill="url(#marka)" letter-spacing="7">
    ZUVIROCL
  </text>

  <polygon points="32,195 66,192 85,205 122,200 145,215 170,208 205,212 240,218 288,205 314,210 342,203 390,209 370,234 32,234"
      fill="#172A40" opacity="0.36"/>
  <polygon points="62,206 83,203 100,210 145,208 170,212 210,215 265,207 295,215 325,211 360,215 360,236 62,236"
      fill="#223447" opacity="0.18"/>
  <polygon points="100,225 170,225 210,230 264,225 300,230 355,228 355,245 100,245"
      fill="url(#marka)" opacity="0.09"/>
  <ellipse cx="200" cy="252" rx="110" ry="10" fill="#162027" opacity="0.53"/>
  <ellipse cx="102" cy="209" rx="15" ry="6" fill="#3CDFFF" opacity="0.13"/>
  <ellipse cx="280" cy="214" rx="21" ry="5" fill="#FFA500" opacity="0.12"/>
  <rect x="65" y="181" width="32" height="38" rx="7" fill="#3CDFFF" opacity="0.16"/>
  <rect x="117" y="175" width="26" height="48" rx="8" fill="#FFA500" opacity="0.19"/>
  <rect x="185" y="189" width="18" height="30" rx="5" fill="#091B26" opacity="0.12"/>
  <rect x="285" y="192" width="20" height="36" rx="6" fill="#19324D" opacity="0.11"/>
  <rect x="245" y="205" width="24" height="21" rx="4" fill="#007AFF" opacity="0.07"/>
  <path d="M68 150 Q 115 120,165 180 T 320 105"
    stroke="url(#celeste)" stroke-width="9" fill="none" stroke-linecap="round"/>
  <path d="M75 164 Q 117 93, 200 135 Q 280 172, 322 98"
    stroke="#10151b" stroke-width="17.5" opacity="0.12" fill="none"/>
  <ellipse cx="180" cy="142" rx="34" ry="12" fill="#3CDFFF" opacity="0.18"/>
  <path d="M103 202 Q 146 146, 230 161 Q 287 169, 305 126"
    stroke="url(#naranjo)" stroke-width="5.8" fill="none" stroke-dasharray="18,13"/>
  <circle cx="68" cy="150" r="12" fill="#3CDFFF" stroke="#3CDFFF" stroke-width="3"/>
  <ellipse cx="68" cy="165" rx="9" ry="2.8" fill="#3CDFFF" opacity="0.22"/>
  <circle cx="322" cy="98" r="10.8" fill="#FFA500" stroke="#FFA500" stroke-width="2.8"/>
  <ellipse cx="322" cy="108" rx="7.9" ry="2.7" fill="#FFA500" opacity="0.23"/>
  <circle cx="200" cy="135" r="8.4" fill="#3CDFFF" stroke="#fff" stroke-width="2.1"/>
  <circle cx="230" cy="161" r="7.1" fill="#FFA500" stroke="#fff" stroke-width="2.2"/>
  <circle cx="287" cy="169" r="5.5" fill="#FFA500" stroke="#fff" stroke-width="1.8"/>
  <circle cx="180" cy="142" r="4.1" fill="#3CDFFF" opacity="0.27"/>
  <circle cx="295" cy="120" r="2.9" fill="#FFA500" opacity="0.18"/>
  <circle cx="95" cy="171" r="2.2" fill="#fff" opacity="0.19"/>
  <ellipse cx="108" cy="136" rx="2.3" ry="1.2" fill="#3CDFFF" opacity="0.26"/>
  <circle cx="128" cy="121" r="3.5" fill="#3CDFFF" opacity="0.21"/>
  <circle cx="250" cy="135" r="3.9" fill="#3CDFFF" opacity="0.12"/>
  <circle cx="200" cy="98" r="2.0" fill="#3CDFFF" opacity="0.13"/>
  <circle cx="300" cy="128" r="1.8" fill="#FFA500" opacity="0.17"/>
  <circle cx="136" cy="107" r="2.0" fill="#3CDFFF" opacity="0.1"/>
  <ellipse cx="200" cy="252" rx="100" ry="13" fill="#007AFF" opacity="0.07"/>
</svg>